<svg xmlns="http://www.w3.org/2000/svg" viewBox="-2 -2 41 41" shape-rendering="crispEdges">
  <rect width="37" height="37" x="0" y="0" rx="6" fill="#ffffff"/>

  <path stroke="url(#qr-gradient)" stroke-width="1" fill="none" d="M2 2.5h7m1 0h3m1 0h1m3 0h1m1 0h4m1 0h1m2 0h7M2 3.5h1m5 0h1m1 0h1m5 0h1m1 0h2m2 0h1m2 0h2m1 0h1m5 0h1M2 4.5h1m1 0h3m1 0h1m2 0h1m1 0h1m1 0h4m1 0h1m1 0h1m2 0h2m1 0h1m1 0h3m1 0h1M2 5.5h1m1 0h3m1 0h1m1 0h5m2 0h1m2 0h2m1 0h1m2 0h1m1 0h1m1 0h3m1 0h1M2 6.5h1m1 0h3m1 0h1m2 0h3m1 0h1m2 0h3m2 0h4m1 0h1m1 0h3m1 0h1M2 7.5h1m5 0h1m3 0h2m2 0h3m5 0h2m2 0h1m5 0h1M2 8.5h7m1 0h1m1 0h1m1 0h1m1 0h1m1 0h1m1 0h1m1 0h1m1 0h1m1 0h1m1 0h7M10 9.5h4m3 0h5m2 0h1m1 0h1M2 10.5h1m1 0h2m1 0h3m3 0h2m1 0h5m2 0h1m1 0h1m2 0h1m2 0h1m1 0h2M2 11.5h1m2 0h3m1 0h1m1 0h5m2 0h2m1 0h2m1 0h2m2 0h2m1 0h4M2 12.5h2m1 0h4m1 0h2m2 0h2m4 0h1m1 0h6m1 0h3m1 0h2M2 13.5h2m2 0h2m1 0h1m1 0h1m2 0h1m2 0h1m1 0h1m1 0h4m4 0h1m1 0h1m2 0h1M2 14.5h2m1 0h2m1 0h7m1 0h1m1 0h1m3 0h6m2 0h2m1 0h2M3 15.5h2m1 0h1m3 0h1m1 0h5m2 0h1m2 0h1m2 0h1m1 0h1m3 0h1m1 0h1M2 16.5h4m1 0h2m1 0h1m1 0h1m1 0h2m3 0h1m1 0h2m3 0h1m1 0h1m1 0h1M2 17.5h2m5 0h1m3 0h1m2 0h2m2 0h1m2 0h2m2 0h2m2 0h2M3 18.5h1m2 0h6m3 0h1m4 0h1m1 0h4m1 0h2m1 0h1m1 0h1M2 19.5h2m2 0h1m3 0h4m3 0h2m3 0h1m2 0h2m1 0h1m1 0h2m2 0h1M3 20.5h1m1 0h2m1 0h1m1 0h1m1 0h3m2 0h2m1 0h1m1 0h2m3 0h1m1 0h2m1 0h1M3 21.5h2m4 0h1m2 0h6m1 0h2m3 0h3m1 0h1m1 0h1m2 0h1M2 22.5h3m1 0h1m1 0h1m1 0h2m1 0h1m3 0h2m2 0h1m2 0h2m3 0h1m1 0h2m1 0h1M2 23.5h5m3 0h1m2 0h2m2 0h2m3 0h4m1 0h2m3 0h1m1 0h1M5 24.5h5m3 0h3m1 0h1m3 0h3m1 0h2m1 0h1m1 0h5M3 25.5h4m2 0h1m1 0h1m5 0h1m2 0h1m1 0h1m3 0h4m1 0h1m2 0h1M2 26.5h1m2 0h2m1 0h1m1 0h6m3 0h1m1 0h1m2 0h1m1 0h5m3 0h1M10 27.5h1m1 0h1m1 0h1m1 0h3m1 0h2m1 0h4m3 0h2M2 28.5h7m1 0h1m1 0h2m1 0h2m2 0h3m1 0h1m1 0h2m1 0h1m1 0h1m2 0h1M2 29.5h1m5 0h1m1 0h5m2 0h1m1 0h3m3 0h2m3 0h4M2 30.5h1m1 0h3m1 0h1m2 0h10m3 0h7m1 0h2M2 31.5h1m1 0h3m1 0h1m1 0h1m4 0h1m2 0h2m1 0h1m1 0h3m3 0h1m2 0h3M2 32.5h1m1 0h3m1 0h1m1 0h1m1 0h2m3 0h4m1 0h1m2 0h2m1 0h2m1 0h2M2 33.5h1m5 0h1m2 0h1m1 0h1m5 0h1m2 0h1m3 0h1m1 0h3m3 0h1M2 34.5h7m1 0h4m2 0h1m2 0h3m1 0h1m1 0h1m1 0h2m1 0h1m1 0h1"/>
  <defs>
    <linearGradient id="qr-gradient" x1="0%" y1="0%" x2="100%" y2="100%">
      <stop offset="0%" stop-color="#0284c7" />
      <stop offset="100%" stop-color="#7e22ce" />
    </linearGradient>
  </defs>
  </svg>